<?xml version="1.0" encoding="UTF-8" standalone="no"?>
<svg width="381.63" xmlns="http://www.w3.org/2000/svg" xmlns:xlink="http://www.w3.org/1999/xlink" height="313.15">
 <defs>
  <clipPath id="clipPath2834">
   <path id="use2836" fill="url(#linearGradient3043)" d="m1345.5 1395.2h233.24c1.0216 0 1.8441 0.82251 1.8441 1.8441v222.27c0 1.0216-0.82251 1.844-1.8441 1.844-77.618-4.3955-155.62-3.5998-233.24 0-1.0216 0-1.8441-0.82239-1.8441-1.844v-222.27c0-1.0216 0.82251-1.8441 1.8441-1.8441z"/>
  </clipPath>
  <filter id="filter2820">
   <feGaussianBlur id="feGaussianBlur2822" stdDeviation="0.49669"/>
  </filter>
  <filter id="filter3052">
   <feGaussianBlur id="feGaussianBlur3054" stdDeviation="0.892712"/>
  </filter>
  <filter id="filter3368">
   <feGaussianBlur id="feGaussianBlur3370" stdDeviation="0.595141"/>
  </filter>
  <linearGradient id="linearGradient2525" y2=".54507" spreadMethod="reflect" x2=".48171" y1=".54507" x1=".002077">
   <stop id="stop2934" stop-color="#8f919d" offset="0"/>
   <stop id="stop2936" stop-color="#878a95" offset="1"/>
  </linearGradient>
  <linearGradient id="linearGradient2545" y2=".38514" spreadMethod="reflect" x2=".51114" y1="1.0518" x1=".51114">
   <stop id="stop3577" stop-color="#575a62" offset="0"/>
   <stop id="stop3579" stop-color="#878a95" stop-opacity="0" offset="1"/>
  </linearGradient>
  <linearGradient id="linearGradient2547" y2="-.000767" x2=".51114" y1="1" x1=".51114">
   <stop id="stop3464" stop-color="#6b6f7a" stop-opacity="0" offset="0"/>
   <stop id="stop3466" stop-color="#ebebed" offset="1"/>
  </linearGradient>
  <linearGradient id="linearGradient2521" y2="-.001088" xlink:href="#linearGradient2894" x2=".50478" y1=".99694" x1=".50478"/>
  <linearGradient id="linearGradient3043" y2="-.002225" x2=".14583" y1=".86985" x1=".14583">
   <stop id="stop2792" stop-color="#8c909b" offset="0"/>
   <stop id="stop2794" stop-color="#787c87" offset="1"/>
  </linearGradient>
  <linearGradient id="linearGradient2519" y2="-.000628" x2=".24926" y1=".98822" x1=".24926">
   <stop id="stop2912" stop-color="#1d2025" offset="0"/>
   <stop id="stop2914" stop-color="#31343b" offset="1"/>
  </linearGradient>
  <linearGradient id="linearGradient2523" y2=".54508" spreadMethod="reflect" x2=".48171" y1=".54508" x1=".007631">
   <stop id="stop2922" stop-color="#abafb8" offset="0"/>
   <stop id="stop2924" stop-color="#bebdc5" offset="1"/>
  </linearGradient>
  <linearGradient id="linearGradient2564" y2=".63355" x2=".65585" y1=".61837" x1=".36520">
   <stop id="stop5106" stop-color="#16191e" offset="0"/>
   <stop id="stop5116" stop-color="#3a3d43" offset=".16349"/>
   <stop id="stop3708" stop-color="#16191e" offset=".23888"/>
   <stop id="stop5112" stop-color="#4a4f56" offset=".46134"/>
   <stop id="stop3710" stop-color="#16191e" offset=".66194"/>
   <stop id="stop5114" stop-color="#36393f" offset=".75"/>
   <stop id="stop5108" stop-color="#16191e" offset="1"/>
  </linearGradient>
  <linearGradient id="linearGradient2566" y2="0.5" x2="1.0004" y1="0.5" x1="-.000377">
   <stop id="stop3398" offset="0"/>
   <stop id="stop3400" stop-opacity="0" offset="1"/>
  </linearGradient>
  <linearGradient id="linearGradient2608" y2=".61046" x2=".64535" y1=".093199" x1=".64535">
   <stop id="stop4263" stop-color="#979aa4" offset="0"/>
   <stop id="stop4265" stop-color="#979aa4" stop-opacity="0" offset="1"/>
  </linearGradient>
  <linearGradient id="linearGradient3196" y2=".47516" x2=".20811" y1=".99061" x1=".20811">
   <stop id="stop2826" stop-color="#4c5059" offset="0"/>
   <stop id="stop2828" stop-color="#818590" offset="1"/>
  </linearGradient>
  <linearGradient id="linearGradient2610" y2="-.23435" x2=".099949" y1=".64132" x1=".088478">
   <stop id="stop2963" stop-color="#979aa4" offset="0"/>
   <stop id="stop2965" stop-color="#50525a" offset="1"/>
  </linearGradient>
  <linearGradient id="linearGradient2578" y2=".31856" x2=".45223" y1="1.1257" x1=".45223">
   <stop id="stop3444" stop-color="#888b95" offset="0"/>
   <stop id="stop3446" stop-color="#f0f1f5" offset="1"/>
  </linearGradient>
  <linearGradient id="linearGradient2568" y2=".50850" xlink:href="#linearGradient3012" x2=".87568" y1=".88423" x1=".89079"/>
  <linearGradient id="linearGradient2576" y2=".25318" x2=".55226" y1="1.159" x1=".55227">
   <stop id="stop3436" stop-color="#b5b7bb" offset="0"/>
   <stop id="stop3438" stop-color="#e5e6ea" offset="1"/>
  </linearGradient>
  <linearGradient id="linearGradient2570" y2=".16782" x2="1.0006" y1=".16782" x1=".022396">
   <stop id="stop3392" stop-color="#9c9eaa" offset="0"/>
   <stop id="stop3412" stop-color="#32373b" offset=".16566"/>
   <stop id="stop3414" stop-color="#9c9ea9" offset=".20498"/>
   <stop id="stop3416" stop-color="#363b3f" offset=".23579"/>
   <stop id="stop3418" stop-color="#515257" offset=".74124"/>
   <stop id="stop3394" stop-color="#4a4f53" offset="1"/>
  </linearGradient>
  <linearGradient id="linearGradient2574" y2=".16782" x2="1.0006" y1=".16782" x1=".022396">
   <stop id="stop3395" stop-color="#9c9eaa" offset="0"/>
   <stop id="stop3397" stop-color="#32373b" offset=".16566"/>
   <stop id="stop3399" stop-color="#868896" offset=".20498"/>
   <stop id="stop3401" stop-color="#363b3f" offset=".23579"/>
   <stop id="stop3403" stop-color="#515257" offset=".74124"/>
   <stop id="stop3405" stop-color="#4a4f53" offset="1"/>
  </linearGradient>
  <linearGradient id="linearGradient2894">
   <stop id="stop2896" stop-color="#5e6169" offset="0"/>
   <stop id="stop2898" stop-color="#1c2125" offset="1"/>
  </linearGradient>
  <linearGradient id="linearGradient3012">
   <stop id="stop3014" stop-color="#53555a" offset="0"/>
   <stop id="stop3016" stop-color="#e7e8ec" offset="1"/>
  </linearGradient>
  <radialGradient id="radialGradient2527" xlink:href="#linearGradient2894" gradientUnits="userSpaceOnUse" cy="-95.418" cx="809.3" gradientTransform="matrix(7.8634e-8 1.0762 -1.2042 8.7983e-8 1094.5 -704.37)" r="883.59"/>
  <radialGradient id="radialGradient3200" gradientUnits="userSpaceOnUse" cy="306.61" cx="572.38" r="2.0625">
   <stop id="stop2988" stop-color="#ccc" offset="0"/>
   <stop id="stop2990" stop-color="#c1c1c1" stop-opacity="0" offset="1"/>
  </radialGradient>
 </defs>
 <path id="path4533" d="m321.4 303.45l-26.105 5.8802h-2.3935l-75.564-7.5686c-2.3887-0.057281-4.8923-0.24545-7.3186 0.028839-9.916 1.121-27.495 1.2126-38.326-0.098389l-7.5843 0.0695-77.234 7.499h-2.157l-24.214-5.4969 3.8269-4.5227c1.6826-1.9885 4.1043-2.6338 7.3755-2.9224l89.133-7.8626c1.5116-0.13333 2.8925-0.86325 4.1052-1.8787h55.803c1.2658 1.1133 2.8233 1.901 4.9402 2.0874l82.568 7.2711c4.4182 0.3891 7.6516 0.72275 10.078 3.7226l3.067 3.7915z" fill-rule="evenodd" stroke="url(#linearGradient2566)" stroke-width=".202" fill="url(#linearGradient2564)"/>
 <g id="use4535" fill-rule="evenodd" transform="matrix(-.19680 0 0 .19680 478.07 -27.028)">
  <path id="path3029" fill="url(#linearGradient2568)" d="m2123.6 1677.2l-132.65 31.879h-12.162c-13.289-23.038-30.795-28.317-55.685-30.582l-328.27-29.875c-12.088-1.1348-24.859-1.2472-37.187 0.14648-23.042 2.6049-66.866 4.2927-99.192 4.5283l-0.0714-61.829h153.78c6.4321 5.6569 14.346 9.6594 25.102 10.607l419.55 36.946c22.45 1.977 38.879 3.6724 51.21 18.915l15.584 19.265z"/>
  <path id="path3031" fill="url(#linearGradient2570)" d="m1991.2 1709.2l-12.838-0.0658c-13.289-23.038-30.265-26.373-55.154-28.638l-328.27-29.875c-12.091-1.1003-24.859-1.2472-37.187 0.14648-23.042 2.6049-69.692 3.8549-99.192 4.5283v-12.829l90.547-3.1404c16.132-0.55945 34.244-3.4864 47.156-2.3596l332.9 29.053c22.451 1.9595 41.196 10.367 51.71 26.915l10.334 16.265z"/>
  <g stroke="#fff" fill="none">
   <path id="path3033" filter="url(#filter3052)" d="m1460.5 1642.5l88.547-3.1404c16.132-0.57202 34.245-3.4864 47.156-2.3596l332.9 29.053c22.451 1.9595 41.196 10.367 51.71 26.915l10.334 16.265"/>
   <path id="path3035" filter="url(#filter3368)" stroke-width="1.2" d="m1458.3 1642.5l92.547-3.1404c16.133-0.54736 34.245-3.4864 47.156-2.3596l332.9 29.053c22.451 1.9595 41.196 10.367 51.71 26.915l10.334 16.265"/>
  </g>
 </g>
 <g id="g4537" fill-rule="evenodd" transform="matrix(.19680 0 0 .19680 -96.541 -27.028)">
  <path id="path4539" fill="url(#linearGradient2568)" d="m2123.6 1677.2l-132.65 31.879h-12.162c-13.289-23.038-30.795-28.317-55.685-30.582l-328.27-29.875c-12.088-1.1348-24.859-1.2472-37.187 0.14648-23.042 2.6049-66.866 4.2927-99.192 4.5283l-0.0714-61.829h153.78c6.4321 5.6569 14.346 9.6594 25.102 10.607l419.55 36.946c22.45 1.977 38.879 3.6724 51.21 18.915l15.584 19.265z"/>
  <path id="path4541" fill="url(#linearGradient2574)" d="m1991.2 1709.2l-12.838-0.0658c-13.289-23.038-30.265-26.373-55.154-28.638l-328.27-29.875c-12.091-1.1003-24.859-1.2472-37.187 0.14648-23.042 2.6049-69.692 3.8549-99.192 4.5283v-12.829l90.547-3.1404c16.132-0.55945 34.244-3.4864 47.156-2.3596l332.9 29.053c22.451 1.9595 41.196 10.367 51.71 26.915l10.334 16.265z"/>
  <g stroke="#fff" fill="none">
   <path id="path4543" filter="url(#filter3052)" d="m1460.5 1642.5l88.547-3.1404c16.132-0.57202 34.245-3.4864 47.156-2.3596l332.9 29.053c22.451 1.9595 41.196 10.367 51.71 26.915l10.334 16.265"/>
   <path id="path4545" filter="url(#filter3368)" stroke-width="1.2" d="m1458.3 1642.5l92.547-3.1404c16.133-0.54736 34.245-3.4864 47.156-2.3596l332.9 29.053c22.451 1.9595 41.196 10.367 51.71 26.915l10.334 16.265"/>
  </g>
 </g>
 <path id="path4547" d="m217.36 291.85c0 1.7616-11.461 3.1896-25.599 3.1896s-25.599-1.428-25.599-3.1896 11.461-3.1896 25.599-3.1896 25.599 1.428 25.599 3.1896z" stroke="url(#linearGradient2578)" stroke-width=".202" fill="url(#linearGradient2576)"/>
 <path id="path2967" fill="url(#linearGradient2608)" d="m168.26 290.89h45.902c0.20105 0 0.36293 0.16186 0.36293 0.36292v8.1882c0 0.20105-46.628-3.5382-46.628 0v-8.1882c0-0.20105 0.16186-0.36292 0.36293-0.36292z"/>
 <path id="path4551" fill="url(#linearGradient2610)" d="m168.26 247.55h45.902c0.20105 0 0.36293 0.16186 0.36293 0.36293v43.744c0 0.20105-0.16188 0.36292-0.36293 0.36292-15.276-0.86505-30.626-0.70847-45.902 0-0.20106 0-0.36293-0.16186-0.36293-0.36292v-43.744c0-0.20106 0.16186-0.36293 0.36293-0.36293z"/>
 <path id="path4553" style="clip-path:url(#clipPath2834)" d="m168.26 247.55h45.902c0.20108 0 0.36293 0.16186 0.36293 0.36293v44.137c0 0.20105-0.16185 0.36288-0.36293 0.36288-15.483-0.82083-30.79-0.84903-45.902 0-0.20106 0-0.36293-0.16184-0.36293-0.36288v-44.137c0-0.20106 0.16186-0.36293 0.36293-0.36293z" filter="url(#filter2820)" stroke="url(#linearGradient3196)" stroke-width="4" fill="none"/>
 <path id="path2984" stroke-linejoin="round" d="m365.47 233.77c0.2308 0.23082 0.4155 0.48219 0.54922 0.73418-0.035034 0.90364-0.3114 1.3825-1.8009 1.3851-0.1633-0.11028-0.32336-0.24173-0.47458-0.39298-1.1999-1.566 1.2008-0.15922 0.87646-2.3333 0.29025 0.13606 0.58371 0.34088 0.84982 0.607z" stroke-dashoffset=".5" stroke-linecap="round" stroke-width="1.25" fill="url(#radialGradient3200)"/>
 <use id="use3342" xlink:href="#path2984" transform="matrix(-1 0 0 1 381.56 4.1606e-7)" height="463.36414" width="825.92938" y="0" x="0"/>
 <rect id="rect4555" transform="matrix(.19680 0 0 .19680 -47.208 -15.818)" rx="5.3441" ry="5.3441" height="1223" width="1893.6" y="108.04" x="262.62" fill="url(#linearGradient2519)"/>
 <rect id="rect4557" transform="matrix(.19680 0 0 .19680 -47.208 -15.818)" rx="5.3441" ry="5.3441" height="1118.3" width="1779.6" y="160.4" x="319.62" fill="url(#linearGradient2521)"/>
 <rect id="rect4559" transform="matrix(.19680 0 0 .19680 -47.208 -15.818)" rx="1.8441" ry="1.8441" height="9" width="1890.6" y="99.041" x="264.12" fill="url(#linearGradient2523)"/>
 <rect id="rect4561" transform="matrix(.19680 0 0 .19680 -47.208 -15.818)" rx="1.8441" ry="1.8441" height="9" width="1890.6" y="1331.6" x="264.12" fill="url(#linearGradient2525)"/>
 <rect id="rect4563" transform="matrix(.19680 0 0 .19680 -47.208 -15.818)" rx="5.3441" ry="5.3441" height="1105.8" width="1766.2" y="166.62" x="326.34" fill="url(#radialGradient2527)"/>
 <rect id="rect4581" transform="matrix(.19680 0 0 .19680 -47.208 -15.818)" rx="1.8441" ry="1.8441" height="9" width="1890.6" y="1331.6" x="264.12" fill="url(#linearGradient2545)"/>
 <rect id="rect4267" opacity=".656" transform="matrix(.19680 0 0 .19680 -47.208 -15.818)" rx="1.8441" ry="1.8441" height="9" width="1890.6" y="1331.6" x="264.12" fill="url(#linearGradient2547)"/>
 <rect id="svg_1" height="218" width="347.5" y="16.853" x="16.875" stroke-width="5" fill="#fff"/>
</svg>
